<svg width="512" height="512" viewBox="0 0 512 512" fill="none" xmlns="http://www.w3.org/2000/svg">
  <rect width="512" height="512" rx="128" fill="url(#paint0_linear)"/>
  <path d="M156 160C156 137.909 173.909 120 196 120H316C338.091 120 356 137.909 356 160V312C356 334.091 338.091 352 316 352H196C173.909 352 156 334.091 156 312V160Z" fill="white" fill-opacity="0.2"/>
  <path d="M356 312L392 348V264L356 300V312Z" fill="white" fill-opacity="0.3"/>
  <path d="M156 220C156 186.863 182.863 160 216 160H296C329.137 160 356 186.863 356 220V320C356 353.137 329.137 380 296 380H216C182.863 380 156 353.137 156 320V220Z" fill="white"/>
  <circle cx="360" cy="152" r="32" fill="#3B82F6" stroke="white" stroke-width="8"/>
  <defs>
    <linearGradient id="paint0_linear" x1="0" y1="0" x2="512" y2="512" gradientUnits="userSpaceOnUse">
      <stop stop-color="#3B82F6"/>
      <stop offset="1" stop-color="#06B6D4"/>
    </linearGradient>
  </defs>
</svg>
