<svg width="512" height="512" viewBox="0 0 512 512" fill="none" xmlns="http://www.w3.org/2000/svg">
  <rect width="512" height="512" rx="128" fill="url(#paint0_linear_logo)"/>
  <path d="M140 140H372V312C372 328.569 358.569 342 342 342H170C153.431 342 140 328.569 140 312V140Z" fill="white" fill-opacity="0.1"/>
  <path d="M160 160V320C160 331.046 168.954 340 180 340H300L352 380V340H360C371.046 340 380 331.046 380 320V160C380 148.954 371.046 140 360 140H180C168.954 140 160 148.954 160 160Z" fill="white"/>
  <circle cx="380" cy="132" r="32" fill="#87D0BF" stroke="white" stroke-width="8"/>
  <defs>
    <linearGradient id="paint0_linear_logo" x1="0" y1="0" x2="512" y2="512" gradientUnits="userSpaceOnUse">
      <stop stop-color="#4A90E2"/>
      <stop offset="1" stop-color="#3B82F6"/>
    </linearGradient>
  </defs>
</svg>