<svg width="512" height="512" viewBox="0 0 512 512" fill="none" xmlns="http://www.w3.org/2000/svg">
  <rect width="512" height="512" rx="128" fill="url(#paint0_linear)"/>
  <path d="M128 160C128 142.327 142.327 128 160 128H352C369.673 128 384 142.327 384 160V320C384 337.673 369.673 352 352 352H224L160 416V352H160C142.327 352 128 337.673 128 320V160Z" fill="white" fill-opacity="0.2"/>
  <path d="M160 144H352C361.941 144 370 152.059 370 162V318C370 327.941 361.941 336 352 336H216L176 376V336H160C150.059 336 142 327.941 142 318V162C142 152.059 150.059 144 160 144Z" stroke="white" stroke-width="24" stroke-linecap="round" stroke-linejoin="round"/>
  <circle cx="384" cy="128" r="32" fill="#22D3EE" stroke="white" stroke-width="8"/>
  <defs>
    <linearGradient id="paint0_linear" x1="0" y1="0" x2="512" y2="512" gradientUnits="userSpaceOnUse">
      <stop stop-color="#3B82F6"/>
      <stop offset="1" stop-color="#22D3EE"/>
    </linearGradient>
  </defs>
</svg>
