<svg width="512" height="512" viewBox="0 0 512 512" fill="none" xmlns="http://www.w3.org/2000/svg">
  <defs>
    <linearGradient id="icon_grad" x1="0" y1="0" x2="512" y2="512" gradientUnits="userSpaceOnUse">
      <stop stop-color="#2563EB"/>
      <stop offset="1" stop-color="#10B981"/>
    </linearGradient>
    <filter id="shadow" x="0" y="0" width="512" height="512" filterUnits="userSpaceOnUse" color-interpolation-filters="sRGB">
      <feFlood flood-opacity="0" result="BackgroundImageFix"/>
      <feColorMatrix in="SourceAlpha" type="matrix" values="0 0 0 0 0 0 0 0 0 0 0 0 0 0 0 0 0 0 127 0" result="hardAlpha"/>
      <feOffset dy="12"/>
      <feGaussianBlur stdDeviation="16"/>
      <feColorMatrix type="matrix" values="0 0 0 0 0 0 0 0 0 0 0 0 0 0 0 0 0 0 0.2 0"/>
      <feBlend mode="normal" in2="BackgroundImageFix" result="effect1_dropShadow"/>
      <feBlend mode="normal" in="SourceGraphic" in2="effect1_dropShadow" result="shape"/>
    </filter>
  </defs>
  <!-- Background with rounded corners and gradient -->
  <rect width="512" height="512" rx="112" fill="url(#icon_grad)"/>
  
  <!-- Modern Geometric Chat Icon -->
  <g filter="url(#shadow)">
    <path d="M140 180C140 157.909 157.909 140 180 140H332C354.091 140 372 157.909 372 180V292C372 314.091 354.091 332 332 332H270L190 382V332H180C157.909 332 140 314.091 140 292V180Z" fill="white"/>
    <rect x="180" y="196" width="152" height="12" rx="6" fill="#F3F4F6" fill-opacity="0.3"/>
    <rect x="180" y="232" width="112" height="12" rx="6" fill="#F3F4F6" fill-opacity="0.3"/>
  </g>
  
  <!-- Accent Notification Dot -->
  <circle cx="392" cy="120" r="32" fill="#10B981" stroke="white" stroke-width="12"/>
</svg>